<svg width="25" height="26" viewBox="0 0 25 26" fill="none" xmlns="http://www.w3.org/2000/svg">
<path fill-rule="evenodd" clip-rule="evenodd" d="M1.75431 1.93937C0 3.69367 0 6.51719 0 12.1643V13.2059C0 18.853 0 21.6765 1.75431 23.4308C3.50861 25.1851 6.33213 25.1851 11.9792 25.1851H13.0208C18.6679 25.1851 21.4914 25.1851 23.2457 23.4308C25 21.6765 25 18.853 25 13.2059V12.1643C25 6.51719 25 3.69367 23.2457 1.93937C21.4914 0.185059 18.6679 0.185059 13.0208 0.185059H11.9792C6.33213 0.185059 3.50861 0.185059 1.75431 1.93937ZM7.68672 8.1031C7.68672 5.38698 9.87734 3.18506 12.5797 3.18506C15.282 3.18506 17.4726 5.38698 17.4726 8.1031C17.4726 10.8193 15.282 13.0214 12.5797 13.0214C9.87734 13.0214 7.68672 10.8193 7.68672 8.1031ZM10.557 8.10317C10.557 9.22595 11.4626 10.1362 12.5797 10.1362C13.6967 10.1362 14.6023 9.22595 14.6023 8.10317C14.6023 6.98039 13.6967 6.07016 12.5797 6.07016C11.4626 6.07016 10.557 6.98039 10.557 8.10317ZM17.5019 15.5512C17.4398 15.6013 16.2659 16.5337 14.3071 16.9348L17.2639 19.8803C17.7838 20.4021 17.7845 21.2488 17.2653 21.7714C16.7462 22.294 15.904 22.2948 15.3839 21.7729L12.5133 18.9631L9.90603 21.7548C9.64499 22.027 9.29677 22.1638 8.94821 22.1638C8.61575 22.1638 8.28301 22.0395 8.02484 21.7893C7.4959 21.2766 7.48056 20.4301 7.9906 19.8984L10.7971 16.9503C8.78338 16.5587 7.56109 15.602 7.49814 15.5512C6.92494 15.0892 6.83287 14.2476 7.29256 13.6714C7.75217 13.0952 8.58942 13.0027 9.16275 13.4647C9.17487 13.4745 10.4533 14.4399 12.5132 14.4413C14.5732 14.4399 15.8251 13.4745 15.8372 13.4647C16.4106 13.0027 17.2478 13.0952 17.7074 13.6714C18.1671 14.2476 18.0751 15.0892 17.5019 15.5512Z" fill="#383838"/>
</svg>
