<svg width="25" height="26" viewBox="0 0 25 26" fill="none" xmlns="http://www.w3.org/2000/svg">
<path fill-rule="evenodd" clip-rule="evenodd" d="M1.75431 1.93937C0 3.69368 0 6.51719 0 12.1642V13.2059C0 18.8529 0 21.6765 1.75431 23.4308C3.50862 25.1851 6.33213 25.1851 11.9792 25.1851H13.0208C18.6678 25.1851 21.4915 25.1851 23.2457 23.4308C25 21.6765 25 18.8529 25 13.2059V12.1642C25 6.51719 25 3.69368 23.2457 1.93937C21.4915 0.185059 18.6678 0.185059 13.0208 0.185059H11.9792C6.33213 0.185059 3.50862 0.185059 1.75431 1.93937ZM4.94824 7.99756H6.77157C7.23756 7.99756 7.41288 8.20147 7.58762 8.70625C8.47938 11.3033 9.98298 13.573 10.6011 13.573C10.8329 13.573 10.9392 13.4663 10.9392 12.8778V10.1933C10.8974 9.42916 10.6304 9.09871 10.4326 8.85394C10.3105 8.70278 10.2148 8.58431 10.2148 8.41657C10.2148 8.21266 10.389 7.99756 10.6787 7.99756H13.544C13.9304 7.99756 14.0649 8.20412 14.0649 8.66766V12.2791C14.0649 12.6653 14.2327 12.8005 14.3486 12.8005C14.5804 12.8005 14.7735 12.6653 15.1985 12.2404C16.5121 10.7727 17.4393 8.51307 17.4393 8.51307C17.5551 8.24276 17.769 7.99756 18.2325 7.99756H20.0559C20.6074 7.99756 20.7232 8.28137 20.6074 8.66766C20.3754 9.72979 18.154 12.8584 18.154 12.8584C17.9609 13.1674 17.8837 13.3219 18.154 13.6695C18.2493 13.8029 18.4525 14.0019 18.685 14.2296C18.9241 14.4637 19.1941 14.7282 19.4097 14.9829C20.1929 15.8637 20.7831 16.6068 20.9475 17.119C21.0978 17.633 20.8374 17.8934 20.3163 17.8934H18.4931C18.0047 17.8934 17.7588 17.6199 17.2274 17.0289C17.0022 16.7784 16.7256 16.4709 16.3575 16.1029C15.2757 15.0601 14.8122 14.9249 14.5417 14.9249C14.1747 14.9249 14.065 15.0289 14.065 15.5496V17.1845C14.065 17.633 13.9216 17.8934 12.7626 17.8934C10.8308 17.8934 8.70803 16.7209 7.20131 14.5579C4.94124 11.3907 4.32309 8.99594 4.32309 8.51307C4.32309 8.24276 4.42728 7.99756 4.94824 7.99756Z" fill="#383838"/>
</svg>
