<svg width="36" height="26" viewBox="0 0 36 26" fill="none" xmlns="http://www.w3.org/2000/svg">
<path fill-rule="evenodd" clip-rule="evenodd" d="M32.0855 0.949765C33.6275 1.36153 34.8433 2.56741 35.2585 4.09682C36.0295 6.89094 35.9998 12.7145 35.9998 12.7145C35.9998 12.7145 35.9998 18.5086 35.2585 21.3027C34.8433 22.8322 33.6275 24.038 32.0855 24.4498C29.2684 25.1851 17.9999 25.1851 17.9999 25.1851C17.9999 25.1851 6.76109 25.1851 3.91432 24.4204C2.37231 24.0086 1.1565 22.8027 0.741348 21.2733C0 18.5086 0 12.6851 0 12.6851C0 12.6851 0 6.89094 0.741348 4.09682C1.1565 2.56741 2.40197 1.33212 3.91432 0.920353C6.73144 0.185059 17.9999 0.185059 17.9999 0.185059C17.9999 0.185059 29.2684 0.185059 32.0855 0.949765ZM14.4118 7.33215L23.7824 12.6851L14.4118 18.0381V7.33215Z" fill="#383838"/>
</svg>
